<svg width="1015" height="1015" viewBox="0 0 1015 1015" fill="none" xmlns="http://www.w3.org/2000/svg">
<path d="M315 0H280V35H315V0Z" fill="#4B5563"/>
<path d="M560 0H525V35H560V0Z" fill="#4B5563"/>
<path d="M595 0H560V35H595V0Z" fill="#4B5563"/>
<path d="M315 35H280V70H315V35Z" fill="#4B5563"/>
<path d="M350 35H315V70H350V35Z" fill="#4B5563"/>
<path d="M455 35H420V70H455V35Z" fill="#4B5563"/>
<path d="M595 35H560V70H595V35Z" fill="#4B5563"/>
<path d="M665 35H630V70H665V35Z" fill="#4B5563"/>
<path d="M700 35H665V70H700V35Z" fill="#4B5563"/>
<path d="M315 70H280V105H315V70Z" fill="#4B5563"/>
<path d="M385 70H350V105H385V70Z" fill="#4B5563"/>
<path d="M420 70H385V105H420V70Z" fill="#4B5563"/>
<path d="M455 70H420V105H455V70Z" fill="#4B5563"/>
<path d="M560 70H525V105H560V70Z" fill="#4B5563"/>
<path d="M595 70H560V105H595V70Z" fill="#4B5563"/>
<path d="M735 70H700V105H735V70Z" fill="#4B5563"/>
<path d="M350 105H315V140H350V105Z" fill="#4B5563"/>
<path d="M420 105H385V140H420V105Z" fill="#4B5563"/>
<path d="M595 105H560V140H595V105Z" fill="#4B5563"/>
<path d="M630 105H595V140H630V105Z" fill="#4B5563"/>
<path d="M700 105H665V140H700V105Z" fill="#4B5563"/>
<path d="M735 105H700V140H735V105Z" fill="#4B5563"/>
<path d="M315 140H280V175H315V140Z" fill="#4B5563"/>
<path d="M350 140H315V175H350V140Z" fill="#4B5563"/>
<path d="M455 140H420V175H455V140Z" fill="#4B5563"/>
<path d="M525 140H490V175H525V140Z" fill="#4B5563"/>
<path d="M560 140H525V175H560V140Z" fill="#4B5563"/>
<path d="M595 140H560V175H595V140Z" fill="#4B5563"/>
<path d="M630 140H595V175H630V140Z" fill="#4B5563"/>
<path d="M665 140H630V175H665V140Z" fill="#4B5563"/>
<path d="M700 140H665V175H700V140Z" fill="#4B5563"/>
<path d="M455 175H420V210H455V175Z" fill="#4B5563"/>
<path d="M560 175H525V210H560V175Z" fill="#4B5563"/>
<path d="M595 175H560V210H595V175Z" fill="#4B5563"/>
<path d="M630 175H595V210H630V175Z" fill="#4B5563"/>
<path d="M315 210H280V245H315V210Z" fill="#4B5563"/>
<path d="M385 210H350V245H385V210Z" fill="#4B5563"/>
<path d="M455 210H420V245H455V210Z" fill="#4B5563"/>
<path d="M525 210H490V245H525V210Z" fill="#4B5563"/>
<path d="M595 210H560V245H595V210Z" fill="#4B5563"/>
<path d="M665 210H630V245H665V210Z" fill="#4B5563"/>
<path d="M735 210H700V245H735V210Z" fill="#4B5563"/>
<path d="M350 245H315V280H350V245Z" fill="#4B5563"/>
<path d="M455 245H420V280H455V245Z" fill="#4B5563"/>
<path d="M490 245H455V280H490V245Z" fill="#4B5563"/>
<path d="M560 245H525V280H560V245Z" fill="#4B5563"/>
<path d="M595 245H560V280H595V245Z" fill="#4B5563"/>
<path d="M700 245H665V280H700V245Z" fill="#4B5563"/>
<path d="M35 280H0V315H35V280Z" fill="#4B5563"/>
<path d="M140 280H105V315H140V280Z" fill="#4B5563"/>
<path d="M175 280H140V315H175V280Z" fill="#4B5563"/>
<path d="M210 280H175V315H210V280Z" fill="#4B5563"/>
<path d="M245 280H210V315H245V280Z" fill="#4B5563"/>
<path d="M280 280H245V315H280V280Z" fill="#4B5563"/>
<path d="M315 280H280V315H315V280Z" fill="#4B5563"/>
<path d="M350 280H315V315H350V280Z" fill="#4B5563"/>
<path d="M385 280H350V315H385V280Z" fill="#4B5563"/>
<path d="M420 280H385V315H420V280Z" fill="#4B5563"/>
<path d="M455 280H420V315H455V280Z" fill="#4B5563"/>
<path d="M490 280H455V315H490V280Z" fill="#4B5563"/>
<path d="M630 280H595V315H630V280Z" fill="#4B5563"/>
<path d="M665 280H630V315H665V280Z" fill="#4B5563"/>
<path d="M770 280H735V315H770V280Z" fill="#4B5563"/>
<path d="M875 280H840V315H875V280Z" fill="#4B5563"/>
<path d="M945 280H910V315H945V280Z" fill="#4B5563"/>
<path d="M980 280H945V315H980V280Z" fill="#4B5563"/>
<path d="M1015 280H980V315H1015V280Z" fill="#4B5563"/>
<path d="M35 315H0V350H35V315Z" fill="#4B5563"/>
<path d="M70 315H35V350H70V315Z" fill="#4B5563"/>
<path d="M175 315H140V350H175V315Z" fill="#4B5563"/>
<path d="M280 315H245V350H280V315Z" fill="#4B5563"/>
<path d="M385 315H350V350H385V315Z" fill="#4B5563"/>
<path d="M455 315H420V350H455V315Z" fill="#4B5563"/>
<path d="M490 315H455V350H490V315Z" fill="#4B5563"/>
<path d="M595 315H560V350H595V315Z" fill="#4B5563"/>
<path d="M630 315H595V350H630V315Z" fill="#4B5563"/>
<path d="M665 315H630V350H665V315Z" fill="#4B5563"/>
<path d="M700 315H665V350H700V315Z" fill="#4B5563"/>
<path d="M840 315H805V350H840V315Z" fill="#4B5563"/>
<path d="M875 315H840V350H875V315Z" fill="#4B5563"/>
<path d="M945 315H910V350H945V315Z" fill="#4B5563"/>
<path d="M980 315H945V350H980V315Z" fill="#4B5563"/>
<path d="M70 350H35V385H70V350Z" fill="#4B5563"/>
<path d="M105 350H70V385H105V350Z" fill="#4B5563"/>
<path d="M140 350H105V385H140V350Z" fill="#4B5563"/>
<path d="M175 350H140V385H175V350Z" fill="#4B5563"/>
<path d="M210 350H175V385H210V350Z" fill="#4B5563"/>
<path d="M245 350H210V385H245V350Z" fill="#4B5563"/>
<path d="M350 350H315V385H350V350Z" fill="#4B5563"/>
<path d="M385 350H350V385H385V350Z" fill="#4B5563"/>
<path d="M455 350H420V385H455V350Z" fill="#4B5563"/>
<path d="M490 350H455V385H490V350Z" fill="#4B5563"/>
<path d="M560 350H525V385H560V350Z" fill="#4B5563"/>
<path d="M595 350H560V385H595V350Z" fill="#4B5563"/>
<path d="M735 350H700V385H735V350Z" fill="#4B5563"/>
<path d="M805 350H770V385H805V350Z" fill="#4B5563"/>
<path d="M840 350H805V385H840V350Z" fill="#4B5563"/>
<path d="M945 350H910V385H945V350Z" fill="#4B5563"/>
<path d="M70 385H35V420H70V385Z" fill="#4B5563"/>
<path d="M105 385H70V420H105V385Z" fill="#4B5563"/>
<path d="M140 385H105V420H140V385Z" fill="#4B5563"/>
<path d="M280 385H245V420H280V385Z" fill="#4B5563"/>
<path d="M350 385H315V420H350V385Z" fill="#4B5563"/>
<path d="M385 385H350V420H385V385Z" fill="#4B5563"/>
<path d="M455 385H420V420H455V385Z" fill="#4B5563"/>
<path d="M490 385H455V420H490V385Z" fill="#4B5563"/>
<path d="M595 385H560V420H595V385Z" fill="#4B5563"/>
<path d="M630 385H595V420H630V385Z" fill="#4B5563"/>
<path d="M665 385H630V420H665V385Z" fill="#4B5563"/>
<path d="M735 385H700V420H735V385Z" fill="#4B5563"/>
<path d="M805 385H770V420H805V385Z" fill="#4B5563"/>
<path d="M910 385H875V420H910V385Z" fill="#4B5563"/>
<path d="M1015 385H980V420H1015V385Z" fill="#4B5563"/>
<path d="M70 420H35V455H70V420Z" fill="#4B5563"/>
<path d="M105 420H70V455H105V420Z" fill="#4B5563"/>
<path d="M245 420H210V455H245V420Z" fill="#4B5563"/>
<path d="M350 420H315V455H350V420Z" fill="#4B5563"/>
<path d="M420 420H385V455H420V420Z" fill="#4B5563"/>
<path d="M455 420H420V455H455V420Z" fill="#4B5563"/>
<path d="M490 420H455V455H490V420Z" fill="#4B5563"/>
<path d="M560 420H525V455H560V420Z" fill="#4B5563"/>
<path d="M595 420H560V455H595V420Z" fill="#4B5563"/>
<path d="M735 420H700V455H735V420Z" fill="#4B5563"/>
<path d="M805 420H770V455H805V420Z" fill="#4B5563"/>
<path d="M840 420H805V455H840V420Z" fill="#4B5563"/>
<path d="M1015 420H980V455H1015V420Z" fill="#4B5563"/>
<path d="M70 455H35V490H70V455Z" fill="#4B5563"/>
<path d="M140 455H105V490H140V455Z" fill="#4B5563"/>
<path d="M210 455H175V490H210V455Z" fill="#4B5563"/>
<path d="M280 455H245V490H280V455Z" fill="#4B5563"/>
<path d="M315 455H280V490H315V455Z" fill="#4B5563"/>
<path d="M455 455H420V490H455V455Z" fill="#4B5563"/>
<path d="M490 455H455V490H490V455Z" fill="#4B5563"/>
<path d="M525 455H490V490H525V455Z" fill="#4B5563"/>
<path d="M595 455H560V490H595V455Z" fill="#4B5563"/>
<path d="M665 455H630V490H665V455Z" fill="#4B5563"/>
<path d="M805 455H770V490H805V455Z" fill="#4B5563"/>
<path d="M875 455H840V490H875V455Z" fill="#4B5563"/>
<path d="M910 455H875V490H910V455Z" fill="#4B5563"/>
<path d="M945 455H910V490H945V455Z" fill="#4B5563"/>
<path d="M980 455H945V490H980V455Z" fill="#4B5563"/>
<path d="M1015 455H980V490H1015V455Z" fill="#4B5563"/>
<path d="M35 490H0V525H35V490Z" fill="#4B5563"/>
<path d="M70 490H35V525H70V490Z" fill="#4B5563"/>
<path d="M140 490H105V525H140V490Z" fill="#4B5563"/>
<path d="M210 490H175V525H210V490Z" fill="#4B5563"/>
<path d="M245 490H210V525H245V490Z" fill="#4B5563"/>
<path d="M280 490H245V525H280V490Z" fill="#4B5563"/>
<path d="M420 490H385V525H420V490Z" fill="#4B5563"/>
<path d="M490 490H455V525H490V490Z" fill="#4B5563"/>
<path d="M595 490H560V525H595V490Z" fill="#4B5563"/>
<path d="M630 490H595V525H630V490Z" fill="#4B5563"/>
<path d="M665 490H630V525H665V490Z" fill="#4B5563"/>
<path d="M700 490H665V525H700V490Z" fill="#4B5563"/>
<path d="M735 490H700V525H735V490Z" fill="#4B5563"/>
<path d="M840 490H805V525H840V490Z" fill="#4B5563"/>
<path d="M945 490H910V525H945V490Z" fill="#4B5563"/>
<path d="M1015 490H980V525H1015V490Z" fill="#4B5563"/>
<path d="M70 525H35V560H70V525Z" fill="#4B5563"/>
<path d="M140 525H105V560H140V525Z" fill="#4B5563"/>
<path d="M210 525H175V560H210V525Z" fill="#4B5563"/>
<path d="M350 525H315V560H350V525Z" fill="#4B5563"/>
<path d="M385 525H350V560H385V525Z" fill="#4B5563"/>
<path d="M560 525H525V560H560V525Z" fill="#4B5563"/>
<path d="M770 525H735V560H770V525Z" fill="#4B5563"/>
<path d="M840 525H805V560H840V525Z" fill="#4B5563"/>
<path d="M875 525H840V560H875V525Z" fill="#4B5563"/>
<path d="M945 525H910V560H945V525Z" fill="#4B5563"/>
<path d="M1015 525H980V560H1015V525Z" fill="#4B5563"/>
<path d="M70 560H35V595H70V560Z" fill="#4B5563"/>
<path d="M105 560H70V595H105V560Z" fill="#4B5563"/>
<path d="M140 560H105V595H140V560Z" fill="#4B5563"/>
<path d="M175 560H140V595H175V560Z" fill="#4B5563"/>
<path d="M210 560H175V595H210V560Z" fill="#4B5563"/>
<path d="M245 560H210V595H245V560Z" fill="#4B5563"/>
<path d="M385 560H350V595H385V560Z" fill="#4B5563"/>
<path d="M455 560H420V595H455V560Z" fill="#4B5563"/>
<path d="M525 560H490V595H525V560Z" fill="#4B5563"/>
<path d="M595 560H560V595H595V560Z" fill="#4B5563"/>
<path d="M735 560H700V595H735V560Z" fill="#4B5563"/>
<path d="M910 560H875V595H910V560Z" fill="#4B5563"/>
<path d="M35 595H0V630H35V595Z" fill="#4B5563"/>
<path d="M70 595H35V630H70V595Z" fill="#4B5563"/>
<path d="M105 595H70V630H105V595Z" fill="#4B5563"/>
<path d="M210 595H175V630H210V595Z" fill="#4B5563"/>
<path d="M280 595H245V630H280V595Z" fill="#4B5563"/>
<path d="M350 595H315V630H350V595Z" fill="#4B5563"/>
<path d="M420 595H385V630H420V595Z" fill="#4B5563"/>
<path d="M455 595H420V630H455V595Z" fill="#4B5563"/>
<path d="M490 595H455V630H490V595Z" fill="#4B5563"/>
<path d="M525 595H490V630H525V595Z" fill="#4B5563"/>
<path d="M595 595H560V630H595V595Z" fill="#4B5563"/>
<path d="M665 595H630V630H665V595Z" fill="#4B5563"/>
<path d="M700 595H665V630H700V595Z" fill="#4B5563"/>
<path d="M735 595H700V630H735V595Z" fill="#4B5563"/>
<path d="M770 595H735V630H770V595Z" fill="#4B5563"/>
<path d="M875 595H840V630H875V595Z" fill="#4B5563"/>
<path d="M945 595H910V630H945V595Z" fill="#4B5563"/>
<path d="M980 595H945V630H980V595Z" fill="#4B5563"/>
<path d="M35 630H0V665H35V630Z" fill="#4B5563"/>
<path d="M70 630H35V665H70V630Z" fill="#4B5563"/>
<path d="M210 630H175V665H210V630Z" fill="#4B5563"/>
<path d="M245 630H210V665H245V630Z" fill="#4B5563"/>
<path d="M315 630H280V665H315V630Z" fill="#4B5563"/>
<path d="M350 630H315V665H350V630Z" fill="#4B5563"/>
<path d="M385 630H350V665H385V630Z" fill="#4B5563"/>
<path d="M420 630H385V665H420V630Z" fill="#4B5563"/>
<path d="M560 630H525V665H560V630Z" fill="#4B5563"/>
<path d="M700 630H665V665H700V630Z" fill="#4B5563"/>
<path d="M735 630H700V665H735V630Z" fill="#4B5563"/>
<path d="M805 630H770V665H805V630Z" fill="#4B5563"/>
<path d="M910 630H875V665H910V630Z" fill="#4B5563"/>
<path d="M1015 630H980V665H1015V630Z" fill="#4B5563"/>
<path d="M35 665H0V700H35V665Z" fill="#4B5563"/>
<path d="M70 665H35V700H70V665Z" fill="#4B5563"/>
<path d="M105 665H70V700H105V665Z" fill="#4B5563"/>
<path d="M140 665H105V700H140V665Z" fill="#4B5563"/>
<path d="M175 665H140V700H175V665Z" fill="#4B5563"/>
<path d="M315 665H280V700H315V665Z" fill="#4B5563"/>
<path d="M350 665H315V700H350V665Z" fill="#4B5563"/>
<path d="M385 665H350V700H385V665Z" fill="#4B5563"/>
<path d="M420 665H385V700H420V665Z" fill="#4B5563"/>
<path d="M455 665H420V700H455V665Z" fill="#4B5563"/>
<path d="M525 665H490V700H525V665Z" fill="#4B5563"/>
<path d="M700 665H665V700H700V665Z" fill="#4B5563"/>
<path d="M770 665H735V700H770V665Z" fill="#4B5563"/>
<path d="M840 665H805V700H840V665Z" fill="#4B5563"/>
<path d="M875 665H840V700H875V665Z" fill="#4B5563"/>
<path d="M910 665H875V700H910V665Z" fill="#4B5563"/>
<path d="M945 665H910V700H945V665Z" fill="#4B5563"/>
<path d="M35 700H0V735H35V700Z" fill="#4B5563"/>
<path d="M70 700H35V735H70V700Z" fill="#4B5563"/>
<path d="M105 700H70V735H105V700Z" fill="#4B5563"/>
<path d="M140 700H105V735H140V700Z" fill="#4B5563"/>
<path d="M245 700H210V735H245V700Z" fill="#4B5563"/>
<path d="M315 700H280V735H315V700Z" fill="#4B5563"/>
<path d="M455 700H420V735H455V700Z" fill="#4B5563"/>
<path d="M490 700H455V735H490V700Z" fill="#4B5563"/>
<path d="M525 700H490V735H525V700Z" fill="#4B5563"/>
<path d="M560 700H525V735H560V700Z" fill="#4B5563"/>
<path d="M595 700H560V735H595V700Z" fill="#4B5563"/>
<path d="M630 700H595V735H630V700Z" fill="#4B5563"/>
<path d="M700 700H665V735H700V700Z" fill="#4B5563"/>
<path d="M735 700H700V735H735V700Z" fill="#4B5563"/>
<path d="M770 700H735V735H770V700Z" fill="#4B5563"/>
<path d="M805 700H770V735H805V700Z" fill="#4B5563"/>
<path d="M840 700H805V735H840V700Z" fill="#4B5563"/>
<path d="M875 700H840V735H875V700Z" fill="#4B5563"/>
<path d="M910 700H875V735H910V700Z" fill="#4B5563"/>
<path d="M945 700H910V735H945V700Z" fill="#4B5563"/>
<path d="M980 700H945V735H980V700Z" fill="#4B5563"/>
<path d="M315 735H280V770H315V735Z" fill="#4B5563"/>
<path d="M385 735H350V770H385V735Z" fill="#4B5563"/>
<path d="M455 735H420V770H455V735Z" fill="#4B5563"/>
<path d="M525 735H490V770H525V735Z" fill="#4B5563"/>
<path d="M630 735H595V770H630V735Z" fill="#4B5563"/>
<path d="M665 735H630V770H665V735Z" fill="#4B5563"/>
<path d="M735 735H700V770H735V735Z" fill="#4B5563"/>
<path d="M875 735H840V770H875V735Z" fill="#4B5563"/>
<path d="M910 735H875V770H910V735Z" fill="#4B5563"/>
<path d="M315 770H280V805H315V770Z" fill="#4B5563"/>
<path d="M350 770H315V805H350V770Z" fill="#4B5563"/>
<path d="M385 770H350V805H385V770Z" fill="#4B5563"/>
<path d="M420 770H385V805H420V770Z" fill="#4B5563"/>
<path d="M455 770H420V805H455V770Z" fill="#4B5563"/>
<path d="M525 770H490V805H525V770Z" fill="#4B5563"/>
<path d="M630 770H595V805H630V770Z" fill="#4B5563"/>
<path d="M700 770H665V805H700V770Z" fill="#4B5563"/>
<path d="M735 770H700V805H735V770Z" fill="#4B5563"/>
<path d="M805 770H770V805H805V770Z" fill="#4B5563"/>
<path d="M875 770H840V805H875V770Z" fill="#4B5563"/>
<path d="M910 770H875V805H910V770Z" fill="#4B5563"/>
<path d="M315 805H280V840H315V805Z" fill="#4B5563"/>
<path d="M385 805H350V840H385V805Z" fill="#4B5563"/>
<path d="M525 805H490V840H525V805Z" fill="#4B5563"/>
<path d="M560 805H525V840H560V805Z" fill="#4B5563"/>
<path d="M630 805H595V840H630V805Z" fill="#4B5563"/>
<path d="M700 805H665V840H700V805Z" fill="#4B5563"/>
<path d="M735 805H700V840H735V805Z" fill="#4B5563"/>
<path d="M875 805H840V840H875V805Z" fill="#4B5563"/>
<path d="M1015 805H980V840H1015V805Z" fill="#4B5563"/>
<path d="M315 840H280V875H315V840Z" fill="#4B5563"/>
<path d="M385 840H350V875H385V840Z" fill="#4B5563"/>
<path d="M420 840H385V875H420V840Z" fill="#4B5563"/>
<path d="M455 840H420V875H455V840Z" fill="#4B5563"/>
<path d="M490 840H455V875H490V840Z" fill="#4B5563"/>
<path d="M525 840H490V875H525V840Z" fill="#4B5563"/>
<path d="M630 840H595V875H630V840Z" fill="#4B5563"/>
<path d="M665 840H630V875H665V840Z" fill="#4B5563"/>
<path d="M700 840H665V875H700V840Z" fill="#4B5563"/>
<path d="M735 840H700V875H735V840Z" fill="#4B5563"/>
<path d="M770 840H735V875H770V840Z" fill="#4B5563"/>
<path d="M805 840H770V875H805V840Z" fill="#4B5563"/>
<path d="M840 840H805V875H840V840Z" fill="#4B5563"/>
<path d="M875 840H840V875H875V840Z" fill="#4B5563"/>
<path d="M910 840H875V875H910V840Z" fill="#4B5563"/>
<path d="M315 875H280V910H315V875Z" fill="#4B5563"/>
<path d="M455 875H420V910H455V875Z" fill="#4B5563"/>
<path d="M630 875H595V910H630V875Z" fill="#4B5563"/>
<path d="M665 875H630V910H665V875Z" fill="#4B5563"/>
<path d="M770 875H735V910H770V875Z" fill="#4B5563"/>
<path d="M840 875H805V910H840V875Z" fill="#4B5563"/>
<path d="M980 875H945V910H980V875Z" fill="#4B5563"/>
<path d="M385 910H350V945H385V910Z" fill="#4B5563"/>
<path d="M455 910H420V945H455V910Z" fill="#4B5563"/>
<path d="M490 910H455V945H490V910Z" fill="#4B5563"/>
<path d="M560 910H525V945H560V910Z" fill="#4B5563"/>
<path d="M630 910H595V945H630V910Z" fill="#4B5563"/>
<path d="M700 910H665V945H700V910Z" fill="#4B5563"/>
<path d="M770 910H735V945H770V910Z" fill="#4B5563"/>
<path d="M840 910H805V945H840V910Z" fill="#4B5563"/>
<path d="M875 910H840V945H875V910Z" fill="#4B5563"/>
<path d="M945 910H910V945H945V910Z" fill="#4B5563"/>
<path d="M980 910H945V945H980V910Z" fill="#4B5563"/>
<path d="M1015 910H980V945H1015V910Z" fill="#4B5563"/>
<path d="M350 945H315V980H350V945Z" fill="#4B5563"/>
<path d="M490 945H455V980H490V945Z" fill="#4B5563"/>
<path d="M525 945H490V980H525V945Z" fill="#4B5563"/>
<path d="M595 945H560V980H595V945Z" fill="#4B5563"/>
<path d="M630 945H595V980H630V945Z" fill="#4B5563"/>
<path d="M665 945H630V980H665V945Z" fill="#4B5563"/>
<path d="M700 945H665V980H700V945Z" fill="#4B5563"/>
<path d="M840 945H805V980H840V945Z" fill="#4B5563"/>
<path d="M910 945H875V980H910V945Z" fill="#4B5563"/>
<path d="M945 945H910V980H945V945Z" fill="#4B5563"/>
<path d="M1015 945H980V980H1015V945Z" fill="#4B5563"/>
<path d="M315 980H280V1015H315V980Z" fill="#4B5563"/>
<path d="M350 980H315V1015H350V980Z" fill="#4B5563"/>
<path d="M385 980H350V1015H385V980Z" fill="#4B5563"/>
<path d="M420 980H385V1015H420V980Z" fill="#4B5563"/>
<path d="M525 980H490V1015H525V980Z" fill="#4B5563"/>
<path d="M560 980H525V1015H560V980Z" fill="#4B5563"/>
<path d="M630 980H595V1015H630V980Z" fill="#4B5563"/>
<path d="M700 980H665V1015H700V980Z" fill="#4B5563"/>
<path d="M735 980H700V1015H735V980Z" fill="#4B5563"/>
<path d="M875 980H840V1015H875V980Z" fill="#4B5563"/>
<path d="M910 980H875V1015H910V980Z" fill="#4B5563"/>
<path d="M208.25 0H36.75H0V36.75V208.25V245H36.75H208.25H245V208.25V36.75V0H208.25ZM208.25 208.25H36.75V36.75H208.25V208.25Z" fill="#4B5563"/>
<path d="M978.25 0H806.75H770V36.75V208.25V245H806.75H978.25H1015V208.25V36.75V0H978.25ZM978.25 208.25H806.75V36.75H978.25V208.25Z" fill="#4B5563"/>
<path d="M208.25 770H36.75H0V806.75V978.25V1015H36.75H208.25H245V978.25V806.75V770H208.25ZM208.25 978.25H36.75V806.75H208.25V978.25Z" fill="#4B5563"/>
<path d="M175 70H70V175H175V70Z" fill="#4B5563"/>
<path d="M945 70H840V175H945V70Z" fill="#4B5563"/>
<path d="M175 840H70V945H175V840Z" fill="#4B5563"/>
</svg>
